
<svg width="23" height="21" viewBox="0 0 23 21" fill="none" xmlns="http://www.w3.org/2000/svg">
<path d="M7.55234 6.33998L1.17234 7.26498L1.05934 7.28798C0.888275 7.3334 0.732331 7.42339 0.607428 7.54879C0.482526 7.67418 0.39314 7.83047 0.348398 8.00171C0.303657 8.17295 0.305163 8.35299 0.352764 8.52346C0.400364 8.69392 0.492353 8.8487 0.619336 8.97198L5.24134 13.471L4.15134 19.826L4.13834 19.936C4.12786 20.1129 4.1646 20.2894 4.24479 20.4475C4.32497 20.6055 4.44572 20.7395 4.59467 20.8355C4.74362 20.9315 4.91542 20.9863 5.09248 20.9941C5.26954 21.0019 5.4455 20.9625 5.60234 20.88L11.3083 17.88L17.0013 20.88L17.1013 20.926C17.2664 20.991 17.4458 21.0109 17.6211 20.9837C17.7964 20.9566 17.9613 20.8832 18.0989 20.7712C18.2365 20.6593 18.3419 20.5127 18.4042 20.3466C18.4665 20.1805 18.4834 20.0008 18.4533 19.826L17.3623 13.471L21.9863 8.97098L22.0643 8.88598C22.1758 8.74875 22.2488 8.58444 22.2761 8.40978C22.3033 8.23512 22.2838 8.05636 22.2194 7.89171C22.1551 7.72707 22.0483 7.58242 21.9098 7.4725C21.7714 7.36258 21.6063 7.29132 21.4313 7.26598L15.0513 6.33998L12.1993 0.559984C12.1168 0.392518 11.9891 0.251499 11.8305 0.152888C11.672 0.0542775 11.489 0.00201416 11.3023 0.00201416C11.1156 0.00201416 10.9327 0.0542775 10.7741 0.152888C10.6156 0.251499 10.4879 0.392518 10.4053 0.559984L7.55234 6.33998Z" fill="#F9C004"/>
</svg>
