<svg width="13" height="14" viewBox="0 0 13 14" fill="none" xmlns="http://www.w3.org/2000/svg">
<mask id="path-1-outside-1_13_2501" maskUnits="userSpaceOnUse" x="-1" y="0" width="14" height="14" fill="black">
<rect fill="white" x="-1" width="14" height="14"/>
<path d="M6.18394 13.304C5.1386 13.304 4.2266 13.1333 3.44794 12.792C2.66927 12.44 2.02394 11.9707 1.51194 11.384C1.0106 10.7973 0.637271 10.1467 0.391937 9.432C0.146604 8.71733 0.0239375 8.00267 0.0239375 7.288V6.936C0.0239375 6.2 0.146604 5.48 0.391937 4.776C0.637271 4.072 1.00527 3.432 1.49594 2.856C1.99727 2.28 2.61594 1.82133 3.35194 1.48C4.0986 1.13867 4.95727 0.967999 5.92794 0.967999C6.98394 0.967999 7.91727 1.16533 8.72794 1.56C9.5386 1.944 10.1893 2.48267 10.6799 3.176C11.1706 3.85867 11.4533 4.65333 11.5279 5.56H8.90394C8.83994 5.13333 8.66927 4.76 8.39194 4.44C8.12527 4.12 7.7786 3.86933 7.35194 3.688C6.93594 3.50667 6.46127 3.416 5.92794 3.416C5.41594 3.416 4.95727 3.50667 4.55194 3.688C4.15727 3.86933 3.81594 4.12533 3.52794 4.456C3.2506 4.78667 3.03727 5.18133 2.88794 5.64C2.74927 6.088 2.67994 6.584 2.67994 7.128C2.67994 7.69333 2.7546 8.21067 2.90394 8.68C3.06394 9.13867 3.29327 9.53867 3.59194 9.88C3.8906 10.2107 4.2586 10.4667 4.69594 10.648C5.14394 10.8293 5.63994 10.92 6.18394 10.92C6.90927 10.92 7.5386 10.7707 8.07194 10.472C8.60527 10.1733 8.98927 9.77867 9.22394 9.288L8.90394 11.08V8.296H11.3199V10.792C10.8186 11.6027 10.1253 12.2267 9.23994 12.664C8.36527 13.0907 7.3466 13.304 6.18394 13.304ZM5.84794 8.808V6.92H12.2799V8.808H5.84794Z"/>
</mask>
<path d="M6.18394 13.304C5.1386 13.304 4.2266 13.1333 3.44794 12.792C2.66927 12.44 2.02394 11.9707 1.51194 11.384C1.0106 10.7973 0.637271 10.1467 0.391937 9.432C0.146604 8.71733 0.0239375 8.00267 0.0239375 7.288V6.936C0.0239375 6.2 0.146604 5.48 0.391937 4.776C0.637271 4.072 1.00527 3.432 1.49594 2.856C1.99727 2.28 2.61594 1.82133 3.35194 1.48C4.0986 1.13867 4.95727 0.967999 5.92794 0.967999C6.98394 0.967999 7.91727 1.16533 8.72794 1.56C9.5386 1.944 10.1893 2.48267 10.6799 3.176C11.1706 3.85867 11.4533 4.65333 11.5279 5.56H8.90394C8.83994 5.13333 8.66927 4.76 8.39194 4.44C8.12527 4.12 7.7786 3.86933 7.35194 3.688C6.93594 3.50667 6.46127 3.416 5.92794 3.416C5.41594 3.416 4.95727 3.50667 4.55194 3.688C4.15727 3.86933 3.81594 4.12533 3.52794 4.456C3.2506 4.78667 3.03727 5.18133 2.88794 5.64C2.74927 6.088 2.67994 6.584 2.67994 7.128C2.67994 7.69333 2.7546 8.21067 2.90394 8.68C3.06394 9.13867 3.29327 9.53867 3.59194 9.88C3.8906 10.2107 4.2586 10.4667 4.69594 10.648C5.14394 10.8293 5.63994 10.92 6.18394 10.92C6.90927 10.92 7.5386 10.7707 8.07194 10.472C8.60527 10.1733 8.98927 9.77867 9.22394 9.288L8.90394 11.08V8.296H11.3199V10.792C10.8186 11.6027 10.1253 12.2267 9.23994 12.664C8.36527 13.0907 7.3466 13.304 6.18394 13.304ZM5.84794 8.808V6.92H12.2799V8.808H5.84794Z" fill="white"/>
<path d="M3.44794 12.792L3.24196 13.2476L3.2472 13.2499L3.44794 12.792ZM1.51194 11.384L1.1318 11.7088L1.13523 11.7128L1.51194 11.384ZM0.391937 9.432L-0.0809736 9.59434L-0.0809736 9.59434L0.391937 9.432ZM0.391937 4.776L0.864089 4.94054L0.864089 4.94054L0.391937 4.776ZM1.49594 2.856L1.11876 2.52772L1.11532 2.53177L1.49594 2.856ZM3.35194 1.48L3.14405 1.02526L3.14158 1.02641L3.35194 1.48ZM8.72794 1.56L8.50906 2.00958L8.51389 2.01187L8.72794 1.56ZM10.6799 3.176L10.2718 3.46484L10.2739 3.46782L10.6799 3.176ZM11.5279 5.56V6.06H12.0708L12.0263 5.51896L11.5279 5.56ZM8.90394 5.56L8.40947 5.63417L8.47335 6.06H8.90394V5.56ZM8.39194 4.44L8.00776 4.76015L8.01409 4.76746L8.39194 4.44ZM7.35194 3.688L7.15214 4.14637L7.15637 4.14817L7.35194 3.688ZM4.55194 3.688L4.34774 3.23157L4.34319 3.23366L4.55194 3.688ZM3.52794 4.456L3.15083 4.12755L3.14484 4.13469L3.52794 4.456ZM2.88794 5.64L2.41245 5.48519L2.41029 5.49216L2.88794 5.64ZM2.90394 8.68L2.42729 8.83166L2.43184 8.84469L2.90394 8.68ZM3.59194 9.88L3.2156 10.2093L3.22089 10.2151L3.59194 9.88ZM4.69594 10.648L4.50442 11.1099L4.50834 11.1115L4.69594 10.648ZM8.07194 10.472L7.82764 10.0357L7.82764 10.0357L8.07194 10.472ZM9.22394 9.288L9.71615 9.3759L8.77287 9.07227L9.22394 9.288ZM8.90394 11.08H8.40394L9.39615 11.1679L8.90394 11.08ZM8.90394 8.296V7.796H8.40394V8.296H8.90394ZM11.3199 8.296H11.8199V7.796H11.3199V8.296ZM11.3199 10.792L11.7452 11.055L11.8199 10.9341V10.792H11.3199ZM9.23994 12.664L9.45915 13.1134L9.46138 13.1123L9.23994 12.664ZM5.84794 8.808H5.34794V9.308H5.84794V8.808ZM5.84794 6.92V6.42H5.34794V6.92H5.84794ZM12.2799 6.92H12.7799V6.42H12.2799V6.92ZM12.2799 8.808V9.308H12.7799V8.808H12.2799ZM6.18394 12.804C5.19226 12.804 4.35129 12.6421 3.64868 12.3341L3.2472 13.2499C4.10192 13.6246 5.08495 13.804 6.18394 13.804V12.804ZM3.6539 12.3364C2.93416 12.011 2.34906 11.5828 1.88865 11.0552L1.13523 11.7128C1.69882 12.3585 2.40439 12.869 3.24198 13.2476L3.6539 12.3364ZM1.89205 11.0592C1.43071 10.5193 1.08931 9.92352 0.864849 9.26966L-0.0809736 9.59434C0.185231 10.3698 0.590497 11.0754 1.13182 11.7088L1.89205 11.0592ZM0.864849 9.26966C0.636417 8.60423 0.523938 7.94433 0.523938 7.288H-0.476062C-0.476062 8.061 -0.343208 8.83044 -0.0809736 9.59434L0.864849 9.26966ZM0.523938 7.288V6.936H-0.476062V7.288H0.523938ZM0.523938 6.936C0.523938 6.25675 0.636948 5.59234 0.864089 4.94054L-0.0802143 4.61146C-0.343739 5.36766 -0.476062 6.14325 -0.476062 6.936H0.523938ZM0.864089 4.94054C1.08875 4.29586 1.42541 3.70984 1.87656 3.18023L1.11532 2.53177C0.585132 3.15416 0.185792 3.84814 -0.0802143 4.61146L0.864089 4.94054ZM1.87309 3.18426C2.32541 2.66457 2.88604 2.24722 3.5623 1.93359L3.14158 1.02641C2.34584 1.39544 1.66913 1.89543 1.11879 2.52774L1.87309 3.18426ZM3.55982 1.93474C4.23043 1.62817 5.01608 1.468 5.92794 1.468V0.467999C4.89846 0.467999 3.96678 0.64916 3.14406 1.02526L3.55982 1.93474ZM5.92794 1.468C6.92102 1.468 7.77733 1.65331 8.50908 2.00955L8.9468 1.11044C8.05721 0.677356 7.04685 0.467999 5.92794 0.467999V1.468ZM8.51389 2.01187C9.25145 2.36123 9.83356 2.84558 10.2718 3.46483L11.0881 2.88717C10.545 2.11975 9.82576 1.52676 8.94198 1.10813L8.51389 2.01187ZM10.2739 3.46782C10.7073 4.07079 10.9618 4.7771 11.0296 5.60104L12.0263 5.51896C11.9448 4.52956 11.6339 3.64654 11.0859 2.88418L10.2739 3.46782ZM11.5279 5.06H8.90394V6.06H11.5279V5.06ZM9.39841 5.48583C9.32062 4.96725 9.11045 4.50561 8.76978 4.11253L8.01409 4.76746C8.22809 5.01439 8.35926 5.29942 8.40947 5.63417L9.39841 5.48583ZM8.77605 4.11991C8.45303 3.73228 8.03888 3.43667 7.54751 3.22783L7.15637 4.14817C7.51833 4.302 7.79751 4.50772 8.00783 4.76009L8.77605 4.11991ZM7.55173 3.22965C7.06264 3.01646 6.51813 2.916 5.92794 2.916V3.916C6.40442 3.916 6.80923 3.99687 7.15215 4.14635L7.55173 3.22965ZM5.92794 2.916C5.35628 2.916 4.82643 3.01745 4.34775 3.23159L4.75612 4.14441C5.08811 3.99589 5.4756 3.916 5.92794 3.916V2.916ZM4.34319 3.23366C3.8835 3.44487 3.48497 3.74404 3.1509 4.12761L3.90498 4.78439C4.1469 4.50663 4.43104 4.2938 4.76069 4.14234L4.34319 3.23366ZM3.14484 4.13469C2.82177 4.51989 2.57934 4.97279 2.4125 5.48521L3.36337 5.79479C3.49521 5.38988 3.67943 5.05344 3.91103 4.77731L3.14484 4.13469ZM2.41029 5.49216C2.25466 5.99499 2.17994 6.54171 2.17994 7.128H3.17994C3.17994 6.62629 3.24388 6.18101 3.36558 5.78784L2.41029 5.49216ZM2.17994 7.128C2.17994 7.73732 2.26043 8.30661 2.42747 8.8316L3.3804 8.5284C3.24878 8.11472 3.17994 7.64935 3.17994 7.128H2.17994ZM2.43184 8.84469C2.61142 9.3595 2.87187 9.81637 3.21565 10.2093L3.96823 9.55075C3.71467 9.26097 3.51645 8.91783 3.37604 8.51531L2.43184 8.84469ZM3.22089 10.2151C3.57234 10.6043 4.00297 10.9019 4.50443 11.1099L4.88745 10.1861C4.51424 10.0314 4.20887 9.81708 3.96299 9.54486L3.22089 10.2151ZM4.50834 11.1115C5.02297 11.3198 5.58368 11.42 6.18394 11.42V10.42C5.69619 10.42 5.2649 10.3389 4.88353 10.1845L4.50834 11.1115ZM6.18394 11.42C6.97882 11.42 7.69545 11.2559 8.31624 10.9083L7.82764 10.0357C7.38175 10.2854 6.83972 10.42 6.18394 10.42V11.42ZM8.31624 10.9083C8.92798 10.5657 9.3904 10.0988 9.67501 9.50373L8.77287 9.07227C8.58814 9.45853 8.28256 9.78099 7.82764 10.0357L8.31624 10.9083ZM8.73172 9.2001L8.41172 10.9921L9.39615 11.1679L9.71615 9.3759L8.73172 9.2001ZM9.40394 11.08V8.296H8.40394V11.08H9.40394ZM8.90394 8.796H11.3199V7.796H8.90394V8.796ZM10.8199 8.296V10.792H11.8199V8.296H10.8199ZM10.8947 10.529C10.4444 11.2571 9.82306 11.8183 9.01849 12.2157L9.46138 13.1123C10.4275 12.6351 11.1928 11.9482 11.7452 11.055L10.8947 10.529ZM9.02073 12.2146C8.22637 12.6021 7.28527 12.804 6.18394 12.804V13.804C7.40794 13.804 8.50417 13.5792 9.45915 13.1134L9.02073 12.2146ZM6.34794 8.808V6.92H5.34794V8.808H6.34794ZM5.84794 7.42H12.2799V6.42H5.84794V7.42ZM11.7799 6.92V8.808H12.7799V6.92H11.7799ZM12.2799 8.308H5.84794V9.308H12.2799V8.308Z" fill="#9538E2" mask="url(#path-1-outside-1_13_2501)"/>
</svg>
